<svg xmlns="http://www.w3.org/2000/svg" viewBox="0 0 100 100" fill="none">
  <path fill-rule="evenodd" clip-rule="evenodd" d="M80.175 15.102L80.8262 10.7379C81.2771 7.71606 78.9362 5 75.8809 5H24.1201C21.0648 5 18.724 7.71606 19.1749 10.7379L19.8261 15.102L80.175 15.102ZM83.9024 28.8776L84.5536 24.5134C85.0045 21.4916 82.6636 18.7755 79.6083 18.7755L18.5293 18.7755C15.4741 18.7755 13.1332 21.4916 13.5841 24.5134L14.2353 28.8776L83.9024 28.8776ZM73.0636 85H26.9371L20.6032 42.551L79.3975 42.551L73.0636 85ZM22.6279 95C20.1514 95 18.0481 93.1872 17.6826 90.7379L9.85655 38.2889C9.40565 35.2671 11.7465 32.551 14.8018 32.551L85.199 32.551C88.2542 32.551 90.5951 35.2671 90.1442 38.2889L82.3182 90.7379C81.9527 93.1872 79.8493 95 77.3729 95H22.6279Z" fill="currentColor"/>
</svg>