<?xml version="1.0" encoding="UTF-8"?>
<svg xmlns="http://www.w3.org/2000/svg" xmlns:xlink="http://www.w3.org/1999/xlink" width="300px" height="300px" viewBox="0 0 300 300" version="1.1">
<g id="surface1">
<path style=" stroke:none;fill-rule:nonzero;fill:rgb(25.882354%,52.156866%,95.686275%);fill-opacity:1;" d="M 282 153.125 C 282 143.375 281.125 134 279.5 125 L 150 125 L 150 178.25 L 224 178.25 C 220.75 195.375 211 209.875 196.375 219.625 L 196.375 254.25 L 241 254.25 C 267 230.25 282 195 282 153.125 Z M 282 153.125 "/>
<path style=" stroke:none;fill-rule:nonzero;fill:rgb(20.392157%,65.882355%,32.549021%);fill-opacity:1;" d="M 150 287.5 C 187.125 287.5 218.25 275.25 241 254.25 L 196.375 219.625 C 184.125 227.875 168.5 232.875 150 232.875 C 114.25 232.875 83.875 208.75 73 176.25 L 27.25 176.25 L 27.25 211.75 C 49.875 256.625 96.25 287.5 150 287.5 Z M 150 287.5 "/>
<path style=" stroke:none;fill-rule:nonzero;fill:rgb(98.431373%,73.725492%,1.960784%);fill-opacity:1;" d="M 73 176.125 C 70.25 167.875 68.625 159.125 68.625 150 C 68.625 140.875 70.25 132.125 73 123.875 L 73 88.375 L 27.25 88.375 C 17.875 106.875 12.5 127.75 12.5 150 C 12.5 172.25 17.875 193.125 27.25 211.625 L 62.875 183.875 Z M 73 176.125 "/>
<path style=" stroke:none;fill-rule:nonzero;fill:rgb(91.764706%,26.274511%,20.784314%);fill-opacity:1;" d="M 150 67.25 C 170.25 67.25 188.25 74.25 202.625 87.75 L 242 48.375 C 218.125 26.125 187.125 12.5 150 12.5 C 96.25 12.5 49.875 43.375 27.25 88.375 L 73 123.875 C 83.875 91.375 114.25 67.25 150 67.25 Z M 150 67.25 "/>
</g>
</svg>
